<?xml version="1.0" encoding="UTF-8" standalone="no"?>
<!-- Generator: Adobe Illustrator 23.0.3, SVG Export Plug-In . SVG Version: 6.00 Build 0)  -->

<svg
   version="1.1"
   id="Layer_1"
   x="0px"
   y="0px"
   viewBox="0 0 72 72"
   style="enable-background:new 0 0 72 72;"
   xml:space="preserve"
   sodipodi:docname="vector_crosshair_v1.svg"
   inkscape:version="1.3 (0e150ed6c4, 2023-07-21)"
   xmlns:inkscape="http://www.inkscape.org/namespaces/inkscape"
   xmlns:sodipodi="http://sodipodi.sourceforge.net/DTD/sodipodi-0.dtd"
   xmlns="http://www.w3.org/2000/svg"
   xmlns:svg="http://www.w3.org/2000/svg"><defs
   id="defs1" /><sodipodi:namedview
   id="namedview1"
   pagecolor="#505050"
   bordercolor="#ffffff"
   borderopacity="1"
   inkscape:showpageshadow="0"
   inkscape:pageopacity="0"
   inkscape:pagecheckerboard="1"
   inkscape:deskcolor="#505050"
   inkscape:zoom="8.4558186"
   inkscape:cx="35.419398"
   inkscape:cy="30.925451"
   inkscape:window-width="1920"
   inkscape:window-height="1057"
   inkscape:window-x="-8"
   inkscape:window-y="-8"
   inkscape:window-maximized="1"
   inkscape:current-layer="layer1" />&#10;<style
   type="text/css"
   id="style1">&#10;	.st0{fill-rule:evenodd;clip-rule:evenodd;fill:#0B1629;}&#10;</style>&#10;&#10;<g
   inkscape:groupmode="layer"
   id="layer1"
   inkscape:label="Layer 1"><path
     id="path3"
     style="display:inline;fill:#f2f2f2;stroke:#000000;stroke-width:0.576344;stroke-opacity:0.0456432"
     d="M 36 15.667969 A 20.33218 20.33218 0 0 0 15.667969 36 A 20.33218 20.33218 0 0 0 36 56.332031 A 20.33218 20.33218 0 0 0 56.332031 36 A 20.33218 20.33218 0 0 0 36 15.667969 z M 36 21.146484 A 14.616692 14.853215 0 0 1 36.716797 21.164062 A 14.616692 14.853215 0 0 1 37.433594 21.21875 A 14.616692 14.853215 0 0 1 38.144531 21.306641 A 14.616692 14.853215 0 0 1 38.851562 21.431641 A 14.616692 14.853215 0 0 1 39.550781 21.591797 A 14.616692 14.853215 0 0 1 40.242188 21.787109 A 14.616692 14.853215 0 0 1 40.923828 22.015625 A 14.616692 14.853215 0 0 1 41.59375 22.277344 A 14.616692 14.853215 0 0 1 42.25 22.572266 A 14.616692 14.853215 0 0 1 42.890625 22.900391 A 14.616692 14.853215 0 0 1 43.513672 23.259766 A 14.616692 14.853215 0 0 1 44.121094 23.650391 A 14.616692 14.853215 0 0 1 44.707031 24.070312 A 14.616692 14.853215 0 0 1 45.273438 24.517578 A 14.616692 14.853215 0 0 1 45.816406 24.994141 A 14.616692 14.853215 0 0 1 46.335938 25.498047 A 14.616692 14.853215 0 0 1 46.830078 26.025391 A 14.616692 14.853215 0 0 1 47.298828 26.578125 A 14.616692 14.853215 0 0 1 47.740234 27.152344 A 14.616692 14.853215 0 0 1 48.154297 27.748047 A 14.616692 14.853215 0 0 1 48.537109 28.363281 A 14.616692 14.853215 0 0 1 48.890625 28.998047 A 14.616692 14.853215 0 0 1 49.212891 29.650391 A 14.616692 14.853215 0 0 1 49.503906 30.316406 A 14.616692 14.853215 0 0 1 49.761719 30.996094 A 14.616692 14.853215 0 0 1 49.986328 31.6875 A 14.616692 14.853215 0 0 1 50.177734 32.390625 A 14.616692 14.853215 0 0 1 50.335938 33.101562 A 14.616692 14.853215 0 0 1 50.458984 33.820312 A 14.616692 14.853215 0 0 1 50.546875 34.544922 A 14.616692 14.853215 0 0 1 50.599609 35.271484 A 14.616692 14.853215 0 0 1 50.599609 35.289062 A 14.616692 14.853215 0 0 1 50.601562 35.306641 A 14.616692 14.853215 0 0 1 50.601562 35.324219 A 14.616692 14.853215 0 0 1 50.603516 35.339844 A 14.616692 14.853215 0 0 1 50.603516 35.357422 A 14.616692 14.853215 0 0 1 50.603516 35.375 A 14.616692 14.853215 0 0 1 50.605469 35.392578 A 14.616692 14.853215 0 0 1 50.605469 35.410156 A 14.616692 14.853215 0 0 1 50.605469 35.427734 A 14.616692 14.853215 0 0 1 50.607422 35.445312 A 14.616692 14.853215 0 0 1 50.607422 35.462891 A 14.616692 14.853215 0 0 1 50.607422 35.480469 A 14.616692 14.853215 0 0 1 50.609375 35.496094 A 14.616692 14.853215 0 0 1 50.609375 35.513672 A 14.616692 14.853215 0 0 1 50.609375 35.53125 A 14.616692 14.853215 0 0 1 50.611328 35.548828 A 14.616692 14.853215 0 0 1 50.611328 35.566406 A 14.616692 14.853215 0 0 1 50.611328 35.583984 A 14.616692 14.853215 0 0 1 50.611328 35.601562 A 14.616692 14.853215 0 0 1 50.613281 35.619141 A 14.616692 14.853215 0 0 1 50.613281 35.634766 A 14.616692 14.853215 0 0 1 50.613281 35.652344 A 14.616692 14.853215 0 0 1 50.613281 35.669922 A 14.616692 14.853215 0 0 1 50.613281 35.6875 A 14.616692 14.853215 0 0 1 50.615234 35.705078 A 14.616692 14.853215 0 0 1 50.615234 35.722656 A 14.616692 14.853215 0 0 1 50.615234 35.740234 A 14.616692 14.853215 0 0 1 50.615234 35.757812 A 14.616692 14.853215 0 0 1 50.615234 35.775391 A 14.616692 14.853215 0 0 1 50.615234 35.791016 A 14.616692 14.853215 0 0 1 50.615234 35.808594 A 14.616692 14.853215 0 0 1 50.615234 35.826172 A 14.616692 14.853215 0 0 1 50.617188 35.84375 A 14.616692 14.853215 0 0 1 50.617188 35.861328 A 14.616692 14.853215 0 0 1 50.617188 35.878906 A 14.616692 14.853215 0 0 1 50.617188 35.896484 A 14.616692 14.853215 0 0 1 50.617188 35.914062 A 14.616692 14.853215 0 0 1 50.617188 35.929688 A 14.616692 14.853215 0 0 1 50.617188 35.947266 A 14.616692 14.853215 0 0 1 50.617188 35.964844 A 14.616692 14.853215 0 0 1 50.617188 35.982422 A 14.616692 14.853215 0 0 1 50.617188 36 A 14.616692 14.853215 0 0 1 50.617188 36.050781 A 14.616692 14.853215 0 0 1 50.617188 36.103516 A 14.616692 14.853215 0 0 1 50.617188 36.154297 A 14.616692 14.853215 0 0 1 50.615234 36.207031 A 14.616692 14.853215 0 0 1 50.615234 36.257812 A 14.616692 14.853215 0 0 1 50.613281 36.310547 A 14.616692 14.853215 0 0 1 50.613281 36.361328 A 14.616692 14.853215 0 0 1 50.611328 36.414062 A 14.616692 14.853215 0 0 1 50.609375 36.464844 A 14.616692 14.853215 0 0 1 50.607422 36.517578 A 14.616692 14.853215 0 0 1 50.607422 36.568359 A 14.616692 14.853215 0 0 1 50.605469 36.621094 A 14.616692 14.853215 0 0 1 50.601562 36.671875 A 14.616692 14.853215 0 0 1 50.599609 36.724609 A 14.616692 14.853215 0 0 1 50.597656 36.775391 A 14.616692 14.853215 0 0 1 50.59375 36.826172 A 14.616692 14.853215 0 0 1 50.591797 36.878906 A 14.616692 14.853215 0 0 1 50.587891 36.929688 A 14.616692 14.853215 0 0 1 50.585938 36.982422 A 14.616692 14.853215 0 0 1 50.582031 37.033203 A 14.616692 14.853215 0 0 1 50.578125 37.085938 A 14.616692 14.853215 0 0 1 50.574219 37.136719 A 14.616692 14.853215 0 0 1 50.570312 37.1875 A 14.616692 14.853215 0 0 1 50.566406 37.240234 A 14.616692 14.853215 0 0 1 50.5625 37.291016 A 14.616692 14.853215 0 0 1 50.556641 37.34375 A 14.616692 14.853215 0 0 1 50.552734 37.394531 A 14.616692 14.853215 0 0 1 50.548828 37.445312 A 14.616692 14.853215 0 0 1 50.542969 37.498047 A 14.616692 14.853215 0 0 1 50.537109 37.548828 A 14.616692 14.853215 0 0 1 50.533203 37.599609 A 14.616692 14.853215 0 0 1 50.527344 37.652344 A 14.616692 14.853215 0 0 1 50.521484 37.703125 A 14.616692 14.853215 0 0 1 50.515625 37.753906 A 14.616692 14.853215 0 0 1 50.509766 37.806641 A 14.616692 14.853215 0 0 1 50.501953 37.857422 A 14.616692 14.853215 0 0 1 50.496094 37.908203 A 14.616692 14.853215 0 0 1 50.490234 37.958984 A 14.616692 14.853215 0 0 1 50.482422 38.011719 A 14.616692 14.853215 0 0 1 50.476562 38.0625 A 14.616692 14.853215 0 0 1 50.46875 38.113281 A 14.616692 14.853215 0 0 1 50.025391 40.185547 A 14.616692 14.853215 0 0 1 49.294922 42.169922 A 14.616692 14.853215 0 0 1 48.296875 44.029297 A 14.616692 14.853215 0 0 1 47.046875 45.726562 A 14.616692 14.853215 0 0 1 45.572266 47.224609 A 14.616692 14.853215 0 0 1 43.902344 48.496094 A 14.616692 14.853215 0 0 1 42.072266 49.511719 A 14.616692 14.853215 0 0 1 40.117188 50.251953 A 14.616692 14.853215 0 0 1 38.080078 50.701172 A 14.616692 14.853215 0 0 1 36 50.853516 A 14.616692 14.853215 0 0 1 33.919922 50.701172 A 14.616692 14.853215 0 0 1 31.882812 50.251953 A 14.616692 14.853215 0 0 1 29.927734 49.511719 A 14.616692 14.853215 0 0 1 28.097656 48.496094 A 14.616692 14.853215 0 0 1 26.427734 47.224609 A 14.616692 14.853215 0 0 1 24.953125 45.726562 A 14.616692 14.853215 0 0 1 23.703125 44.029297 A 14.616692 14.853215 0 0 1 22.705078 42.169922 A 14.616692 14.853215 0 0 1 21.974609 40.185547 A 14.616692 14.853215 0 0 1 21.53125 38.113281 A 14.616692 14.853215 0 0 1 21.382812 36 A 14.616692 14.853215 0 0 1 21.53125 33.886719 A 14.616692 14.853215 0 0 1 21.974609 31.814453 A 14.616692 14.853215 0 0 1 22.705078 29.830078 A 14.616692 14.853215 0 0 1 23.703125 27.970703 A 14.616692 14.853215 0 0 1 24.953125 26.273438 A 14.616692 14.853215 0 0 1 26.427734 24.775391 A 14.616692 14.853215 0 0 1 28.097656 23.503906 A 14.616692 14.853215 0 0 1 29.927734 22.488281 A 14.616692 14.853215 0 0 1 31.882812 21.748047 A 14.616692 14.853215 0 0 1 33.919922 21.298828 A 14.616692 14.853215 0 0 1 36 21.146484 z "
     inkscape:label="Outer" /><rect
     style="fill:#f9f9f9;stroke:#000000;stroke-width:3.53744;stroke-opacity:0.0456432"
     id="rect3-0-6-2"
     width="16.30057"
     height="20.959898"
     x="27.849714"
     y="0.062092848" /><rect
     style="fill:#f9f9f9;stroke:#000000;stroke-width:2.96989;stroke-opacity:0.0456432"
     id="rect3-0-6-2-9"
     width="18.317043"
     height="13.147297"
     x="53.744534"
     y="29.426348" /><rect
     style="fill:#f9f9f9;stroke:#000000;stroke-width:2.96989;stroke-opacity:0.0456432"
     id="rect3-0-6-2-9-0"
     width="18.317043"
     height="13.147297"
     x="0.014562022"
     y="29.426353" /><path
     id="path2"
     style="enable-background:new 0 0 72 72;fill:#1a1a1a;stroke:#000000;stroke-width:0.510235;stroke-opacity:0.0456432"
     d="M 36 18 A 18 18 0 0 0 18 36 A 18 18 0 0 0 36 54 A 18 18 0 0 0 54 36 A 18 18 0 0 0 36 18 z M 36 21.146484 A 14.616692 14.853215 0 0 1 36.716797 21.164062 A 14.616692 14.853215 0 0 1 37.433594 21.21875 A 14.616692 14.853215 0 0 1 38.144531 21.306641 A 14.616692 14.853215 0 0 1 38.851562 21.431641 A 14.616692 14.853215 0 0 1 39.550781 21.591797 A 14.616692 14.853215 0 0 1 40.242188 21.787109 A 14.616692 14.853215 0 0 1 40.923828 22.015625 A 14.616692 14.853215 0 0 1 41.59375 22.277344 A 14.616692 14.853215 0 0 1 42.25 22.572266 A 14.616692 14.853215 0 0 1 42.890625 22.900391 A 14.616692 14.853215 0 0 1 43.513672 23.259766 A 14.616692 14.853215 0 0 1 44.121094 23.650391 A 14.616692 14.853215 0 0 1 44.707031 24.070312 A 14.616692 14.853215 0 0 1 45.273438 24.517578 A 14.616692 14.853215 0 0 1 45.816406 24.994141 A 14.616692 14.853215 0 0 1 46.335938 25.498047 A 14.616692 14.853215 0 0 1 46.830078 26.025391 A 14.616692 14.853215 0 0 1 47.298828 26.578125 A 14.616692 14.853215 0 0 1 47.740234 27.152344 A 14.616692 14.853215 0 0 1 48.154297 27.748047 A 14.616692 14.853215 0 0 1 48.537109 28.363281 A 14.616692 14.853215 0 0 1 48.890625 28.998047 A 14.616692 14.853215 0 0 1 49.212891 29.650391 A 14.616692 14.853215 0 0 1 49.503906 30.316406 A 14.616692 14.853215 0 0 1 49.761719 30.996094 A 14.616692 14.853215 0 0 1 49.986328 31.6875 A 14.616692 14.853215 0 0 1 50.177734 32.390625 A 14.616692 14.853215 0 0 1 50.335938 33.101562 A 14.616692 14.853215 0 0 1 50.458984 33.820312 A 14.616692 14.853215 0 0 1 50.546875 34.544922 A 14.616692 14.853215 0 0 1 50.599609 35.271484 A 14.616692 14.853215 0 0 1 50.617188 36 A 14.616692 14.853215 0 0 1 50.46875 38.113281 A 14.616692 14.853215 0 0 1 50.025391 40.185547 A 14.616692 14.853215 0 0 1 49.294922 42.169922 A 14.616692 14.853215 0 0 1 48.296875 44.029297 A 14.616692 14.853215 0 0 1 47.046875 45.726562 A 14.616692 14.853215 0 0 1 45.572266 47.224609 A 14.616692 14.853215 0 0 1 43.902344 48.496094 A 14.616692 14.853215 0 0 1 42.072266 49.511719 A 14.616692 14.853215 0 0 1 40.117188 50.251953 A 14.616692 14.853215 0 0 1 38.080078 50.701172 A 14.616692 14.853215 0 0 1 36 50.853516 A 14.616692 14.853215 0 0 1 33.919922 50.701172 A 14.616692 14.853215 0 0 1 31.882812 50.251953 A 14.616692 14.853215 0 0 1 29.927734 49.511719 A 14.616692 14.853215 0 0 1 28.097656 48.496094 A 14.616692 14.853215 0 0 1 26.427734 47.224609 A 14.616692 14.853215 0 0 1 24.953125 45.726562 A 14.616692 14.853215 0 0 1 23.703125 44.029297 A 14.616692 14.853215 0 0 1 22.705078 42.169922 A 14.616692 14.853215 0 0 1 21.974609 40.185547 A 14.616692 14.853215 0 0 1 21.53125 38.113281 A 14.616692 14.853215 0 0 1 21.382812 36 A 14.616692 14.853215 0 0 1 21.53125 33.886719 A 14.616692 14.853215 0 0 1 21.974609 31.814453 A 14.616692 14.853215 0 0 1 22.705078 29.830078 A 14.616692 14.853215 0 0 1 23.703125 27.970703 A 14.616692 14.853215 0 0 1 24.953125 26.273438 A 14.616692 14.853215 0 0 1 26.427734 24.775391 A 14.616692 14.853215 0 0 1 28.097656 23.503906 A 14.616692 14.853215 0 0 1 29.927734 22.488281 A 14.616692 14.853215 0 0 1 31.882812 21.748047 A 14.616692 14.853215 0 0 1 33.919922 21.298828 A 14.616692 14.853215 0 0 1 36 21.146484 z "
     inkscape:label="Inner" /><rect
     style="fill:#1a1a1a;stroke:#000000;stroke-width:2.76618;stroke-opacity:0.0456432"
     id="rect3"
     width="20.536385"
     height="10.173038"
     x="50.767151"
     y="30.913477" /><rect
     style="fill:#1a1a1a;stroke:#000000;stroke-width:2.76618;stroke-opacity:0.0456432"
     id="rect3-0"
     width="20.536385"
     height="10.173038"
     x="0.84642792"
     y="30.913483" /><rect
     style="fill:#1a1a1a;stroke:#000000;stroke-width:3.16036;stroke-opacity:0.0456432"
     id="rect3-0-6"
     width="13.873596"
     height="19.656103"
     x="29.0632"
     y="1.4903805" /></g></svg>
